<svg xmlns="http://www.w3.org/2000/svg" xml:space="preserve" x="0" y="0" style="enable-background:new 0 0 2000 2000" version="1.1" viewBox="0 0 2000 2000"><path d="M918.5 519.5c219.4 0 404.4 147.1 461.8 347 5 17 7.9 34.5 11.2 52.4H1990v-52.4c-77.7-57.4-132.6-98.1-210.3-155.4-120.5-359.9-460.5-619.6-861.2-619.6C416.9 91.5 10 497.9 10 1000s406.5 908.5 908.5 908.5c400.7 0 740.6-259.8 861.2-619.7 77.7-57.4 132.6-98.1 210.3-155.4V1081h-598.9c-2.9 17.9-6.2 35.3-11.2 52.4-57.4 200.3-241.9 347-461.3 347-264.7 0-480.5-215.3-480.5-480.5s215.7-480.4 480.4-480.4z" style="fill:#0b825d"/></svg>