<?xml version="1.0" standalone="no"?>
<!DOCTYPE svg PUBLIC "-//W3C//DTD SVG 20010904//EN"
 "http://www.w3.org/TR/2001/REC-SVG-20010904/DTD/svg10.dtd">
<svg version="1.0" xmlns="http://www.w3.org/2000/svg"
 width="1536.000000pt" height="1024.000000pt" viewBox="0 0 1536.000000 1024.000000"
 preserveAspectRatio="xMidYMid meet">

<g transform="translate(0.000000,1024.000000) scale(0.100000,-0.100000)"
fill="#000000" stroke="none">
<path d="M3763 7250 c-460 -37 -876 -224 -1208 -542 -315 -301 -512 -672 -591
-1113 -24 -137 -25 -437 -1 -592 50 -319 179 -629 371 -888 83 -112 313 -337
423 -415 285 -200 577 -319 903 -366 175 -25 491 -15 660 21 183 38 325 89
500 177 315 159 557 371 745 653 87 130 170 294 216 424 49 141 70 166 274
320 l180 136 3 63 3 62 -598 0 -599 0 -12 -81 c-98 -621 -707 -1042 -1324
-914 -221 46 -402 141 -564 297 -142 137 -248 318 -301 515 -24 89 -27 115
-27 278 0 151 4 192 21 255 74 268 215 480 419 633 453 340 1077 292 1475
-114 123 -125 213 -272 269 -436 l29 -88 606 -3 605 -2 0 57 -1 58 -201 145
c-110 80 -210 157 -223 172 -12 14 -59 100 -103 190 -158 316 -378 567 -670
761 -377 251 -839 372 -1279 337z"/>
<path d="M6830 5281 l0 -981 323 0 c461 0 616 17 777 83 90 37 160 77 218 124
248 202 368 495 349 852 -14 254 -97 466 -245 623 -120 127 -240 197 -422 246
-94 25 -99 26 -547 30 l-453 4 0 -981z m894 630 c206 -55 329 -185 387 -406
29 -113 29 -308 0 -418 -42 -159 -121 -276 -242 -356 -116 -77 -284 -111 -556
-111 l-123 0 0 661 0 661 228 -5 c189 -4 240 -8 306 -26z"/>
<path d="M9279 5759 c-302 -32 -535 -260 -596 -583 -21 -108 -13 -292 17 -396
35 -124 94 -224 185 -316 140 -142 244 -184 465 -191 174 -6 256 8 369 64 93
46 217 165 274 263 116 200 139 482 58 710 -39 110 -85 184 -166 265 -147 146
-359 211 -606 184z m235 -309 c151 -57 236 -216 236 -442 0 -274 -122 -433
-342 -446 -225 -13 -371 144 -385 413 -12 236 82 420 244 480 59 21 182 19
247 -5z"/>
<path d="M10853 5760 c-304 -32 -529 -249 -589 -569 -22 -116 -14 -315 16
-421 55 -192 181 -351 340 -429 118 -57 204 -74 365 -69 109 4 142 9 205 31
140 50 262 153 336 283 33 60 74 164 74 191 0 10 -35 13 -173 13 l-174 0 -11
-39 c-16 -52 -84 -126 -146 -159 -45 -24 -62 -27 -146 -27 -84 0 -101 3 -146
27 -122 64 -189 193 -200 388 -13 208 60 379 195 458 42 25 55 27 151 27 96 0
109 -2 151 -27 56 -33 106 -88 131 -145 l19 -43 179 0 c99 0 180 1 180 3 0 2
-7 28 -16 58 -65 220 -255 396 -474 437 -82 16 -186 20 -267 12z"/>
<path d="M12208 5760 c-256 -31 -415 -163 -449 -370 -21 -130 13 -253 93 -333
85 -85 193 -125 509 -191 182 -38 229 -72 229 -168 0 -59 -28 -100 -87 -129
-42 -21 -62 -24 -158 -24 -98 0 -116 3 -167 27 -61 28 -111 85 -123 139 l-7
29 -164 0 c-186 0 -175 6 -150 -87 48 -180 190 -312 392 -363 107 -28 310 -28
417 -1 162 42 280 128 339 249 32 64 33 71 33 187 0 111 -2 124 -28 176 -15
31 -49 77 -76 102 -85 80 -173 114 -452 176 -248 55 -274 71 -274 171 0 51 4
63 29 89 16 17 49 37 74 46 54 18 165 20 229 3 57 -14 117 -71 134 -127 l12
-41 164 0 163 0 0 23 c0 36 -30 128 -56 173 -37 63 -131 147 -205 182 -115 55
-281 79 -421 62z"/>
</g>
</svg>
